<svg width="5625" height="8812" viewBox="0 0 5625 8812" fill="none" xmlns="http://www.w3.org/2000/svg">
<g clip-path="url(#clip0_12_277)">
<rect width="5624.11" height="8811.97" transform="translate(0 0.0258789)" fill="white"/>
<path d="M-401.624 3317.02C-409.609 3262.84 -411.06 3208.19 -406.373 3153.26L-509.248 -394.284L5902.06 -225.589C5902.06 -225.589 6434.01 4334.05 5902.06 1925.28C5387.29 -405.713 -265.903 1506.86 -406.373 3153.26L-401.624 3317.02Z" fill="#6E9D49"/>
<path d="M-401.624 3147.03C-409.609 3092.85 -411.06 3038.21 -406.373 2983.27L-509.248 -564.271L5902.06 -395.575C5902.06 -395.575 6434.01 4164.06 5902.06 1755.29C5387.29 -575.699 -265.903 1336.87 -406.373 2983.27L-401.624 3147.03Z" fill="url(#paint0_linear_12_277)"/>
</g>
<defs>
<linearGradient id="paint0_linear_12_277" x1="-509.248" y1="1291.38" x2="6138.48" y2="1291.38" gradientUnits="userSpaceOnUse">
<stop offset="0.49" stop-color="#144F00"/>
<stop offset="1" stop-color="#3D8332"/>
</linearGradient>
<clipPath id="clip0_12_277">
<rect width="5624.11" height="8811.97" fill="white" transform="translate(0 0.0258789)"/>
</clipPath>
</defs>
</svg>
