<svg width="391" height="387" viewBox="0 0 391 387" fill="none" xmlns="http://www.w3.org/2000/svg">
<ellipse cx="201" cy="193" rx="150" ry="148" fill="url(#paint0_linear_2_5)"/>
<path d="M169.222 198.727C169.222 208.699 167.421 217.316 163.82 224.58C160.219 231.843 155.28 237.444 149.001 241.384C142.723 245.323 135.552 247.293 127.489 247.293C119.425 247.293 112.254 245.323 105.976 241.384C99.6974 237.444 94.7578 231.843 91.157 224.58C87.5561 217.316 85.7557 208.699 85.7557 198.727C85.7557 188.756 87.5561 180.138 91.157 172.875C94.7578 165.612 99.6974 160.01 105.976 156.071C112.254 152.132 119.425 150.162 127.489 150.162C135.552 150.162 142.723 152.132 149.001 156.071C155.28 160.01 160.219 165.612 163.82 172.875C167.421 180.138 169.222 188.756 169.222 198.727ZM158.142 198.727C158.142 190.541 156.772 183.631 154.033 177.999C151.325 172.367 147.647 168.105 143 165.212C138.384 162.319 133.213 160.872 127.489 160.872C121.764 160.872 116.578 162.319 111.931 165.212C107.315 168.105 103.637 172.367 100.898 177.999C98.1894 183.631 96.8352 190.541 96.8352 198.727C96.8352 206.914 98.1894 213.823 100.898 219.455C103.637 225.087 107.315 229.35 111.931 232.243C116.578 235.136 121.764 236.582 127.489 236.582C133.213 236.582 138.384 235.136 143 232.243C147.647 229.35 151.325 225.087 154.033 219.455C156.772 213.823 158.142 206.914 158.142 198.727ZM188.472 246V151.455H220.418C227.805 151.455 233.868 152.716 238.607 155.24C243.347 157.733 246.855 161.165 249.133 165.535C251.41 169.905 252.549 174.875 252.549 180.446C252.549 186.017 251.41 190.956 249.133 195.265C246.855 199.574 243.362 202.959 238.653 205.421C233.945 207.853 227.928 209.068 220.603 209.068H194.751V198.727H220.234C225.281 198.727 229.344 197.989 232.421 196.511C235.53 195.034 237.776 192.941 239.161 190.233C240.577 187.494 241.285 184.232 241.285 180.446C241.285 176.661 240.577 173.352 239.161 170.521C237.746 167.689 235.483 165.504 232.375 163.965C229.267 162.396 225.158 161.611 220.049 161.611H199.921V246H188.472ZM232.975 203.528L256.242 246H242.947L220.049 203.528H232.975ZM351.399 198.727C351.399 208.699 349.599 217.316 345.998 224.58C342.397 231.843 337.458 237.444 331.179 241.384C324.901 245.323 317.73 247.293 309.666 247.293C301.603 247.293 294.432 245.323 288.154 241.384C281.875 237.444 276.936 231.843 273.335 224.58C269.734 217.316 267.933 208.699 267.933 198.727C267.933 188.756 269.734 180.138 273.335 172.875C276.936 165.612 281.875 160.01 288.154 156.071C294.432 152.132 301.603 150.162 309.666 150.162C317.73 150.162 324.901 152.132 331.179 156.071C337.458 160.01 342.397 165.612 345.998 172.875C349.599 180.138 351.399 188.756 351.399 198.727ZM340.32 198.727C340.32 190.541 338.95 183.631 336.211 177.999C333.503 172.367 329.825 168.105 325.178 165.212C320.561 162.319 315.391 160.872 309.666 160.872C303.942 160.872 298.756 162.319 294.109 165.212C289.492 168.105 285.815 172.367 283.075 177.999C280.367 183.631 279.013 190.541 279.013 198.727C279.013 206.914 280.367 213.823 283.075 219.455C285.815 225.087 289.492 229.35 294.109 232.243C298.756 235.136 303.942 236.582 309.666 236.582C315.391 236.582 320.561 235.136 325.178 232.243C329.825 229.35 333.503 225.087 336.211 219.455C338.95 213.823 340.32 206.914 340.32 198.727Z" fill="white"/>
<defs>
<linearGradient id="paint0_linear_2_5" x1="201" y1="45" x2="201" y2="341" gradientUnits="userSpaceOnUse">
<stop stop-color="#D9D9D9"/>
<stop offset="1" stop-color="#1B1818"/>
</linearGradient>
</defs>
</svg>
